<svg width="87" height="82" viewBox="0 0 87 82" fill="none" xmlns="http://www.w3.org/2000/svg">
<g clip-path="url(#clip0)">
<path d="M4.14556 38.1699C3.97974 38.2252 3.75865 38.2805 3.59283 38.2805C2.87428 38.2805 2.211 37.8383 1.93463 37.1197C0.49753 32.8084 -0.165747 28.6629 0.0553452 24.7938C0.773896 9.98061 12.6576 0.915812 23.7123 0.749992C24.6519 0.749992 25.481 1.52382 25.481 2.46346C25.481 3.4031 24.7072 4.2322 23.7675 4.2322C14.3158 4.39802 4.14556 12.1915 3.53755 24.9596C3.37173 28.3866 3.92447 32.0899 5.25102 35.9037C5.52739 36.8434 5.0852 37.8383 4.14556 38.1699Z" fill="#FF482F"/>
<path d="M8.51203 43.255C8.06985 42.4259 6.96439 42.0943 6.13529 42.5365C5.30619 43.0339 4.97455 44.0841 5.47201 44.9685C11.0546 55.194 19.5667 63.7614 25.702 69.1229C26.0336 69.3992 26.4205 69.565 26.8627 69.565C27.3602 69.565 27.8576 69.344 28.1893 68.957C28.7973 68.2385 28.742 67.133 28.0235 66.4697C22.054 61.2741 13.8735 53.0384 8.51203 43.255Z" fill="#FF482F"/>
<path d="M60.6347 65.0327C55.0521 70.1178 49.0273 74.5949 43.5 77.7455C40.7916 76.1978 37.8622 74.2633 34.988 72.1076C34.2141 71.5549 33.1087 71.7207 32.5559 72.4945C32.0032 73.2684 32.169 74.3738 32.9428 74.9265C36.3145 77.4138 39.5756 79.5695 42.6709 81.283C42.9473 81.4488 43.2237 81.5041 43.5 81.5041C43.7764 81.5041 44.108 81.4488 44.3291 81.283C50.2986 77.9666 56.9314 73.1025 62.9562 67.6305C63.6747 66.9672 63.73 65.8618 63.0667 65.1432C62.4587 64.4246 61.3532 64.3694 60.6347 65.0327Z" fill="#FF482F"/>
<path d="M86.9448 24.7938C86.7237 19.985 85.2313 15.4526 82.6335 11.5835C82.0808 10.8097 81.0306 10.5886 80.2015 11.0861C79.4276 11.6388 79.2066 12.689 79.704 13.5181C81.9149 16.8345 83.1862 20.8141 83.4073 24.9596C83.9048 34.9641 77.88 47.1794 66.4385 59.229C65.7752 59.9475 65.8305 61.053 66.4937 61.7163C66.8254 62.0479 67.2676 62.2137 67.7097 62.2137C68.1519 62.2137 68.6494 62.0479 68.981 61.661C77.6036 52.6515 87.6633 38.8885 86.9448 24.7938Z" fill="#FF482F"/>
<path d="M31.7822 6.00094C35.9277 7.99078 39.3546 11.473 41.9525 16.337C42.2288 16.8898 42.8368 17.2767 43.5001 17.2767C44.1634 17.2767 44.7161 16.945 45.0478 16.337C48.1983 10.4228 52.6755 6.44313 57.9817 4.89548C62.7904 3.51365 67.9861 4.17693 72.6291 6.77477C73.4581 7.27223 74.5083 6.94059 75.0058 6.11149C75.5033 5.28239 75.1716 4.2322 74.3425 3.73475C68.9258 0.639449 62.7352 -0.134375 57.042 1.52382C51.6253 3.07147 47.0376 6.71949 43.5554 12.0257C40.7365 7.9355 37.2542 4.78493 33.2746 2.85037C32.3902 2.40819 31.34 2.7951 30.9531 3.67947C30.5662 4.56384 30.8978 5.61403 31.7822 6.00094Z" fill="#FF482F"/>
<path d="M52.1225 13.297C50.7959 14.6788 49.4141 16.337 47.8665 18.4374C46.9821 19.7087 44.8817 22.5276 43.4446 24.4069C42.0628 22.4723 39.9624 19.6534 39.0228 18.4374C34.0482 11.7493 29.958 7.88023 23.491 7.88023C18.5164 7.88023 13.6524 10.3122 10.3913 14.4577C9.78327 15.2316 9.94909 16.337 10.6676 16.8897C11.4415 17.4978 12.5469 17.3319 13.0997 16.6134C15.6975 13.3523 19.5113 11.3624 23.4357 11.3624C28.4656 11.3624 31.6714 14.4577 36.1486 20.5378C37.5857 22.5276 41.9522 28.4418 41.9522 28.4418C42.2839 28.884 42.7813 29.1604 43.3341 29.1604C43.8868 29.1604 44.3843 28.884 44.7159 28.4418C44.7712 28.3866 49.1377 22.5276 50.5196 20.5378C51.9567 18.5479 53.228 17.0003 54.444 15.7843C55.1072 15.121 55.1073 14.0155 54.3887 13.297C53.9465 12.6337 52.841 12.6337 52.1225 13.297Z" fill="#FF482F"/>
<path d="M8.45673 23.4672C7.51709 23.412 6.68799 24.1858 6.63272 25.1254C6.24581 33.3059 10.8335 43.4209 19.6772 53.7017C28.742 64.3141 38.6911 71.1127 42.5603 73.5447C42.8366 73.7105 43.1683 73.8211 43.4999 73.8211C43.8315 73.8211 44.1632 73.7105 44.4395 73.5447C48.3087 71.1127 58.2578 64.3141 67.3779 53.7017C70.0863 50.5511 72.4078 47.3452 74.3423 44.2499C74.8398 43.4209 74.5634 42.3707 73.7896 41.8732C72.9605 41.3757 71.9103 41.6521 71.4128 42.4259C69.5888 45.3554 67.3779 48.3954 64.7801 51.4355C56.6549 60.8872 47.8112 67.2436 43.5552 70.0072C39.2991 67.2436 30.4554 60.8872 22.3303 51.4355C14.0393 41.8732 9.72802 32.5873 10.1149 25.2913C10.1702 24.3516 9.39638 23.5225 8.45673 23.4672Z" fill="#FF482F"/>
<path d="M77.6585 33.0295C77.769 33.0848 77.9349 33.0848 78.0454 33.0848C78.8192 33.0848 79.5378 32.532 79.7589 31.7582C80.3116 29.4367 80.5327 27.2258 80.4222 25.1254C79.8694 14.3472 71.3574 7.88023 63.4533 7.88023C62.1267 7.88023 60.8002 8.04605 59.5842 8.43296C58.6445 8.70932 58.1471 9.70424 58.4234 10.5886C58.6998 11.5283 59.6947 12.0257 60.5791 11.7493C61.5187 11.473 62.4584 11.3072 63.4533 11.3072C69.7544 11.3072 76.4978 16.5028 76.9399 25.236C77.0505 27.0047 76.8294 28.884 76.3872 30.8739C76.1108 31.924 76.7189 32.8637 77.6585 33.0295Z" fill="#FF482F"/>
<path d="M23.5461 14.4577C19.4559 14.4577 13.5417 17.8847 13.1548 25.4571C12.9337 29.6026 14.5919 34.743 17.9636 40.3256C18.2952 40.8783 18.8479 41.1547 19.4559 41.1547C19.7876 41.1547 20.0639 41.0994 20.3403 40.8783C21.1694 40.3808 21.4458 39.3306 20.9483 38.5015C17.9636 33.527 16.4712 29.0498 16.637 25.6229C16.9134 20.3167 20.8378 17.9399 23.5461 17.9399C24.6516 17.9399 26.8073 18.9901 30.6764 23.9647C31.2844 24.7385 32.3346 24.8491 33.1084 24.2963C33.8822 23.6883 33.9928 22.6382 33.44 21.8643C29.5156 16.7792 26.4756 14.4577 23.5461 14.4577Z" fill="#FF482F"/>
<path d="M48.7509 57.9024C47.0375 59.3395 45.2687 60.7213 43.5 61.9926C39.0781 58.7868 32.9981 53.8122 27.305 47.1242C27.0286 46.7925 26.7522 46.5161 26.5311 46.1845C25.9231 45.466 24.8177 45.3554 24.0991 45.9634C23.3253 46.6267 23.2148 47.7322 23.8228 48.4507C24.0991 48.7823 24.3755 49.114 24.6519 49.4456C31.0635 56.9075 37.8621 62.3243 42.5051 65.5854C42.7814 65.8065 43.1684 65.917 43.5 65.917C43.8316 65.917 44.2185 65.8065 44.4949 65.5854C46.7058 64.0377 48.8615 62.3795 50.9619 60.6108C51.6804 60.0028 51.791 58.8973 51.183 58.1788C50.575 57.405 49.4695 57.2944 48.7509 57.9024Z" fill="#FF482F"/>
<path d="M56.3784 55.0282C56.8206 55.0282 57.2628 54.8624 57.5944 54.5308C59.2526 52.8726 60.8555 51.1591 62.3479 49.4456C69.9203 40.6019 74.1211 31.8688 73.7894 25.5124C73.4025 17.9399 67.4883 14.513 63.3981 14.513C59.5842 14.513 55.881 18.9349 52.1224 23.7989C51.6249 24.5174 51.7355 25.6229 52.5093 26.2309C53.2831 26.8389 54.3886 26.6731 54.9413 25.8993C56.8759 23.3014 60.9661 17.9952 63.3981 17.9952C66.1065 17.9952 70.0309 20.372 70.3072 25.6782C70.5836 31.0949 66.6039 39.1096 59.6948 47.1794C58.2577 48.8376 56.71 50.4958 55.1624 52.0987C54.4991 52.762 54.4991 53.8675 55.1624 54.586C55.494 54.8624 55.9362 55.0282 56.3784 55.0282Z" fill="#FF482F"/>
<path d="M43.4998 38.999C44.0525 38.999 44.55 38.7779 44.8816 38.3357C44.9369 38.2805 48.0874 34.3008 51.238 30.5422C51.846 29.8237 51.7355 28.7182 51.0169 28.1102C50.2984 27.5022 49.1929 27.6127 48.5849 28.3313C46.7056 30.5975 44.7711 32.9742 43.555 34.5219C42.2285 32.919 40.2387 30.4869 38.691 28.6077C38.083 27.8891 36.9775 27.7233 36.259 28.3866C35.4299 28.9393 35.3193 30.0448 35.9274 30.7633C38.4146 33.8033 42.1732 38.3357 42.1732 38.3357C42.5049 38.7226 43.0023 38.999 43.4998 38.999Z" fill="#FF482F"/>
<path d="M30.4004 28.7735C30.1241 28.3866 29.7924 27.8891 29.3502 27.2811C28.3 25.844 26.9182 23.9094 25.9786 22.1407C25.5364 21.3116 24.4862 20.98 23.6018 21.4222C22.7727 21.8643 22.4411 22.9145 22.8833 23.7989C23.9335 25.7335 25.4258 27.7786 26.476 29.3262C26.9182 29.9342 27.2498 30.4317 27.4709 30.708L27.5262 30.7633L28.7422 32.4215C29.6819 33.7481 30.2346 34.4666 31.119 35.5721C31.3953 35.9037 31.727 36.3459 32.1139 36.7881C32.4455 37.2303 32.943 37.4514 33.4957 37.4514C33.8826 37.4514 34.2695 37.3408 34.5459 37.0644C35.3197 36.4564 35.4303 35.351 34.8223 34.6324C34.4354 34.135 34.1037 33.7481 33.8274 33.3611C32.9983 32.311 32.4455 31.6477 31.5612 30.3764L30.4004 28.7735Z" fill="#FF482F"/>
<path d="M57.3735 45.1343C64.9459 36.3459 67.4332 29.3815 67.2674 25.7887C67.1016 22.804 65.3881 21.6985 64.6143 21.3669C64.0616 21.0905 63.3983 21.2011 62.9008 21.5327C61.2979 22.6934 58.9212 25.4571 56.1022 29.4368L56.047 29.5473C55.1073 30.8739 53.7808 32.5873 52.1226 34.6324C51.5146 35.351 51.6251 36.4564 52.3436 37.0644C53.0622 37.6724 54.1677 37.5619 54.7757 36.8434C56.5444 34.743 57.9262 32.9742 58.8659 31.5371L58.9212 31.4266C61.1321 28.2207 62.6797 26.452 63.6746 25.4018C63.7299 25.5676 63.7299 25.7335 63.7299 25.8993C63.8405 28.1102 62.0717 34.1902 54.7204 42.7576C51.404 46.5714 47.6454 50.2194 43.4999 53.5911C39.3545 50.2194 35.5959 46.5714 32.2795 42.7576C26.3653 35.9037 24.3202 30.9844 23.6569 28.6629C23.3805 27.7233 22.4409 27.2258 21.5012 27.4469C20.5616 27.7233 20.0641 28.6629 20.2852 29.6026C21.5565 34.0797 24.8729 39.607 29.6264 45.079C33.3297 49.3904 37.641 53.4806 42.3945 57.2391C42.7261 57.5155 43.113 57.626 43.4999 57.626C43.8869 57.626 44.2738 57.5155 44.6054 57.2391C49.3589 53.5358 53.6149 49.4456 57.3735 45.1343Z" fill="#FF482F"/>
<path d="M36.038 41.7074C37.1987 42.9234 42.0628 47.7322 42.2839 47.9533C42.6155 48.2849 43.0577 48.4507 43.4999 48.4507C43.4999 48.4507 43.4999 48.4507 43.5551 48.4507C43.9973 48.4507 44.4948 48.2296 44.7711 47.898C44.8264 47.8427 47.9217 44.5816 49.5799 42.8128C50.2432 42.0943 50.2432 40.9888 49.5246 40.3256C48.8061 39.6623 47.7006 39.6623 47.0373 40.3808C46.0424 41.431 44.4948 43.0339 43.4446 44.1394C41.8969 42.5918 39.2991 40.0492 38.5253 39.2201C37.862 38.5015 36.7565 38.5015 36.038 39.1648C35.3747 39.8834 35.3747 40.9888 36.038 41.7074Z" fill="#FF482F"/>
</g>
<defs>
<clipPath id="clip0">
<rect width="86.9999" height="80.7541" fill="white" transform="translate(0 0.75)"/>
</clipPath>
</defs>
</svg>
